HIERARCHY
ROOT Hips
{
	OFFSET 0.00000 0.00000 0.00000
	CHANNELS 6 Xposition Yposition Zposition Zrotation Yrotation Xrotation 
	JOINT LHipJoint
	{
		OFFSET 0 0 0
		CHANNELS 3 Zrotation Yrotation Xrotation
		JOINT LeftHip
		{
			OFFSET 1.75344 -1.53157 0.77399
			CHANNELS 3 Zrotation Yrotation Xrotation
			JOINT LeftKnee
			{
				OFFSET 2.25415 -6.19323 0.00000
				CHANNELS 3 Zrotation Yrotation Xrotation
				JOINT LeftAnkle
				{
					OFFSET 2.30342 -6.32861 0.00000
					CHANNELS 3 Zrotation Yrotation Xrotation
					JOINT LeftToe
					{
						OFFSET 0.10958 -0.30108 1.49206
						CHANNELS 3 Zrotation Yrotation Xrotation
						End Site
						{
							OFFSET 0.00000 -0.00000 0.77783
						}
					}
				}
			}
		}
	}
	JOINT RHipJoint
	{
		OFFSET 0 0 0
		CHANNELS 3 Zrotation Yrotation Xrotation
		JOINT RightHip
		{
			OFFSET -1.81912 -1.53156 0.77399
			CHANNELS 3 Zrotation Yrotation Xrotation
			JOINT RightKnee
			{
				OFFSET -2.22882 -6.12365 0.00000
				CHANNELS 3 Zrotation Yrotation Xrotation
				JOINT RightAnkle
				{
					OFFSET -2.21943 -6.09785 0.00000
					CHANNELS 3 Zrotation Yrotation Xrotation
					JOINT RightToe
					{
						OFFSET -0.18931 -0.52012 1.59379
						CHANNELS 3 Zrotation Yrotation Xrotation
						End Site
						{
							OFFSET -0.00000 -0.00000 0.84686
						}
					}
				}
			}
		}
	}
	JOINT lowerback
	{
		OFFSET 0 0 0
		CHANNELS 3 Zrotation Yrotation Xrotation
		JOINT Chest
		{
			OFFSET -0.00200 1.66634 -0.14248
			CHANNELS 3 Zrotation Yrotation Xrotation
			JOINT Chest2
			{
				OFFSET -0.00875 1.64542 0.09514
				CHANNELS 3 Zrotation Yrotation Xrotation
				JOINT lowerneck
				{
					OFFSET 0 0 0
					CHANNELS 3 Zrotation Yrotation Xrotation
					JOINT Neck
					{
						OFFSET 0.02257 1.59605 0.00839
						CHANNELS 3 Zrotation Yrotation Xrotation
						JOINT Head
						{
							OFFSET -0.10214 1.57530 -0.23335
							CHANNELS 3 Zrotation Yrotation Xrotation
							End Site
							{
								OFFSET -0.03588 1.60717 -0.08062
							}
						}
					}
				}
				JOINT LeftCollar
				{
					OFFSET 0 0 0
					CHANNELS 3 Zrotation Yrotation Xrotation
					JOINT LeftShoulder
					{
						OFFSET 2.54983 1.10186 0.40078
CHANNELS 3 Zrotation Xrotation Yrotation
						JOINT LeftElbow
						{
OFFSET 0 -4.288400 0.000000
CHANNELS 3 Zrotation Xrotation Yrotation
							JOINT LeftWrist
							{
OFFSET 0 -3.065520 -0.000000
CHANNELS 3 Zrotation Xrotation Yrotation
								JOINT lhand
								{
									OFFSET 0 0 0
CHANNELS 3 Zrotation Xrotation Yrotation
									JOINT LFingers
									{
OFFSET 0 -0.753040 0.000000
CHANNELS 3 Zrotation Xrotation Yrotation
										End Site
										{
OFFSET 0 -0.607120 0.000000
										}
									}
								}
								JOINT LThumb
								{
OFFSET 0 0.000000 0.000000
CHANNELS 3 Zrotation Xrotation Yrotation
									End Site
									{
OFFSET 0 -0.616390 0.616390
									}
								}
							}
						}
					}
				}
				JOINT RightCollar
				{
					OFFSET 0 0 0
					CHANNELS 3 Zrotation Yrotation Xrotation
					JOINT RightShoulder
					{
						OFFSET -2.60909 1.35448 0.21802
CHANNELS 3 Zrotation Xrotation Yrotation
						JOINT RightElbow
						{
OFFSET 0 -4.521720 -0.000000
CHANNELS 3 Zrotation Xrotation Yrotation
							JOINT RightWrist
							{
OFFSET 0 -2.891400 0.000000
CHANNELS 3 Zrotation Xrotation Yrotation
								JOINT rhand
								{
									OFFSET 0 0 0
CHANNELS 3 Zrotation Xrotation Yrotation
									JOINT RFingers
									{
OFFSET 0 -0.680540 0.000000
CHANNELS 3 Zrotation Xrotation Yrotation
										End Site
										{
OFFSET 0 -0.548670 0.000000
										}
									}
								}
								JOINT RThumb
								{
OFFSET 0 0.000000 0.000000
CHANNELS 3 Zrotation Xrotation Yrotation
									End Site
									{
OFFSET 0 -0.557050 0.557050
									}
								}
							}
						}
					}
				}
			}
		}
	}
}
MOTION
Frames: 10
Frame Time: 0.008333333333333333
8.495900 15.502700 22.705200 -178.910000 0.478200 -179.585000 0.000000 0.000000 0.000000 -23.631800 -16.988400 -2.092200 1.716500 8.248700 23.472100 1.021700 8.691200 -24.105900 4.274500 -12.517000 -37.586300 0.000000 0.000000 0.000000 25.339800 13.537300 2.450000 -0.958900 -6.235500 17.469100 0.384600 -19.489000 -24.295200 -0.032500 1.164600 -3.201800 0.902800 1.089100 9.089700 -0.077200 1.645200 -4.482200 -0.882600 0.760600 -9.873500 -6.077200 -2.767300 -6.169500 6.343200 -3.590300 4.397000 3.025200 -1.712200 2.788900 0.000000 0.000000 0.000000 5.319700 15.591800 -39.915100 20.738100 -31.521400 5.912400 3.631500 6.896800 36.102700 0.000000 0.000000 0.000000 -7.125000 0.000000 0.000000 -15.949600 -4.961100 -17.952900 0.000000 0.000000 0.000000 -5.984800 13.565000 51.605800 -19.994600 -30.635800 -5.528600 -16.047200 30.961400 54.903800 0.000000 0.000000 0.000000 7.125000 0.000000 -0.000000 73.753300 77.704000 -61.336500
8.496151 15.501024 22.704613 -178.923409 0.391796 -179.591705 0.000000 0.000000 0.000000 -23.643617 -17.030471 -2.093122 1.713818 8.242582 23.453327 0.995971 8.788583 -23.969798 4.367693 -12.634077 -38.014131 0.000000 0.000000 0.000000 25.329827 13.476708 2.420835 -0.962420 -6.246562 17.501449 0.395579 -19.550514 -24.293189 -0.037445 1.248658 -3.433357 0.912773 1.072255 9.101433 -0.090441 1.622153 -4.472981 -0.898439 0.748113 -9.870064 -6.026916 -2.795543 -6.041779 6.275568 -3.630611 4.314702 2.990085 -1.734995 2.735934 0.000000 0.000000 0.000000 5.546312 15.561378 -40.327762 20.780255 -31.570930 5.934441 3.294179 6.846851 36.243243 0.000000 0.000000 0.000000 -7.125000 0.000000 0.000000 -16.132968 -5.060327 -18.202140 0.000000 0.000000 0.000000 -6.106319 13.615284 51.722291 -20.022927 -30.669909 -5.543015 -17.061089 32.179358 54.258994 0.000000 0.000000 0.000000 7.125000 0.000000 0.000000 70.638302 77.994557 -58.697019
8.496200 15.500903 22.704027 -178.943579 0.296196 -179.620721 0.000000 0.000000 0.000000 -23.673756 -17.025889 -2.067878 1.716545 8.248837 23.472418 0.995395 8.748915 -23.933696 4.397938 -12.671913 -38.152580 0.000000 0.000000 0.000000 25.316676 13.407191 2.452387 -0.959178 -6.236124 17.471122 0.403650 -19.605334 -24.306863 -0.037859 1.255569 -3.452407 0.923084 1.056492 9.145011 -0.098544 1.601135 -4.464506 -0.910154 0.736437 -9.886438 -6.077443 -2.821825 -5.910948 6.299146 -3.666527 4.235920 3.006153 -1.755086 2.689460 0.000000 0.000000 0.000000 5.735873 15.566521 -40.620683 20.839786 -31.640878 5.965677 2.765650 7.004474 36.205019 0.000000 0.000000 0.000000 -7.125000 0.000000 0.000000 -16.407749 -4.969697 -18.514598 0.000000 0.000000 0.000000 -6.304984 13.699509 51.978199 -20.049495 -30.701922 -5.556618 -18.414462 33.636258 53.651510 0.000000 0.000000 0.000000 7.125000 0.000000 0.000000 67.514312 78.408574 -56.206422
8.496611 15.501771 22.703491 -178.950457 0.206724 -179.662280 0.000000 0.000000 0.000000 -23.686894 -16.988846 -2.040943 1.720311 8.257439 23.498726 1.004339 8.653181 -23.932496 4.415575 -12.693752 -38.232776 0.000000 0.000000 0.000000 25.325852 13.357030 2.506862 -0.957814 -6.231900 17.458793 0.386961 -19.591861 -24.439885 -0.028705 1.081057 -2.971981 0.949107 1.042736 9.197040 -0.108913 1.584099 -4.446080 -0.933788 0.725418 -9.896297 -6.113807 -2.843266 -5.790684 6.336599 -3.696403 4.123375 3.024402 -1.771547 2.633330 0.000000 0.000000 0.000000 5.981193 15.605120 -40.970794 20.956954 -31.777934 6.027345 2.533416 6.952145 36.087779 0.000000 0.000000 0.000000 -7.125000 0.000000 0.000000 -16.524251 -4.833904 -18.621198 0.000000 0.000000 0.000000 -6.487573 13.785385 52.169802 -20.101198 -30.764079 -5.583087 -19.706506 35.076396 53.293709 0.000000 0.000000 0.000000 7.125000 0.000000 0.000000 65.521751 78.848459 -54.806035
8.496965 15.502782 22.702883 -178.947239 0.127219 -179.697454 0.000000 0.000000 0.000000 -23.683565 -16.958825 -2.034538 1.724020 8.265863 23.524572 1.008757 8.580852 -23.912551 4.445405 -12.730537 -38.368123 0.000000 0.000000 0.000000 25.345166 13.318293 2.547418 -0.959110 -6.236066 17.470956 0.365400 -19.561109 -24.590022 -0.019525 0.902083 -2.479398 0.986350 1.028284 9.231128 -0.123421 1.566482 -4.415743 -0.967312 0.713353 -9.882013 -6.094904 -2.856214 -5.685366 6.344198 -3.714824 3.966102 3.022001 -1.781937 2.561580 0.000000 0.000000 0.000000 6.264477 15.639207 -41.348080 21.094138 -31.937975 6.099713 2.745127 6.609695 36.059755 0.000000 0.000000 0.000000 -7.125000 0.000000 0.000000 -16.412363 -4.828604 -18.482745 0.000000 0.000000 0.000000 -6.654315 13.854287 52.325162 -20.185377 -30.865019 -5.626202 -20.907651 36.500503 53.058097 0.000000 0.000000 0.000000 7.125000 0.000000 0.000000 64.066793 79.279671 -53.898509
8.500040 15.504461 22.710065 -178.948187 -0.110572 -179.624122 0.000000 0.000000 0.000000 -23.617165 -17.026828 -2.201358 1.728066 8.275036 23.552703 1.002926 8.444439 -23.759549 4.510803 -12.810354 -38.663241 0.000000 0.000000 0.000000 25.346113 13.266688 2.430159 -0.961380 -6.243074 17.491456 0.372508 -19.655947 -24.678883 -0.017491 0.853232 -2.345144 0.981791 0.971693 9.290994 -0.132684 1.463153 -4.435445 -0.955666 0.651804 -9.941164 -6.049174 -2.855456 -5.572467 6.334505 -3.714414 3.766526 3.009201 -1.783083 2.471650 0.000000 0.000000 0.000000 6.526481 15.646170 -41.657494 21.203794 -32.065468 6.157768 3.194341 6.135420 36.178530 0.000000 0.000000 0.000000 -7.125000 0.000000 0.000000 -16.182370 -4.987913 -18.243564 0.000000 0.000000 0.000000 -6.835157 13.911233 52.522387 -20.297570 -30.999161 -5.683821 -22.196141 38.048463 52.764229 0.000000 0.000000 0.000000 7.125000 0.000000 0.000000 62.227421 79.734988 -52.655880
8.513321 15.509187 22.742941 -178.965830 -0.879717 -179.251222 0.000000 0.000000 0.000000 -23.361581 -17.320392 -2.845382 1.732748 8.285732 23.585222 0.994409 7.931713 -23.294862 4.643373 -12.970500 -39.258194 0.000000 0.000000 0.000000 25.307766 13.182457 1.890196 -0.964825 -6.253997 17.523058 0.427233 -20.048837 -24.814392 -0.014931 0.789517 -2.169748 0.835071 0.787358 9.520638 -0.115909 1.095448 -4.641889 -0.789296 0.436313 -10.316578 -6.058667 -2.835853 -5.397795 6.382206 -3.690072 3.532836 3.028062 -1.773004 2.360993 0.000000 0.000000 0.000000 6.732019 15.656408 -41.871159 21.285971 -32.160606 6.201446 3.379756 5.797260 36.268613 0.000000 0.000000 0.000000 -7.125000 0.000000 0.000000 -16.089500 -5.093483 -18.157477 0.000000 0.000000 0.000000 -7.033895 13.988176 52.733601 -20.426879 -31.153253 -5.750595 -23.785887 39.874583 52.407133 0.000000 0.000000 0.000000 7.125000 0.000000 0.000000 59.882836 80.300729 -51.052650
8.510974 15.502902 22.738248 -178.960801 -0.806386 -179.405426 0.000000 0.000000 0.000000 -23.431895 -17.267008 -2.647013 1.737106 8.295537 23.615392 1.003544 8.000015 -23.423672 4.663235 -12.994134 -39.346610 0.000000 0.000000 0.000000 25.342211 13.133933 2.043646 -0.968512 -6.265730 17.557251 0.434105 -20.061743 -24.772824 -0.015853 0.813654 -2.236122 0.875549 0.809734 9.619194 -0.125044 1.135256 -4.576604 -0.830529 0.454415 -10.301157 -6.078361 -2.840379 -5.244094 6.420756 -3.698118 3.362625 3.044656 -1.779038 2.278109 0.000000 0.000000 0.000000 7.024922 15.686159 -42.339469 21.426849 -32.323190 6.276620 3.573349 5.193687 36.286715 0.000000 0.000000 0.000000 -7.125000 0.000000 0.000000 -15.989100 -5.131363 -18.044590 0.000000 0.000000 0.000000 -7.166645 14.070138 52.665718 -20.517809 -31.261111 -5.797694 -25.347619 41.704914 51.959272 0.000000 0.000000 0.000000 7.125000 0.000000 0.000000 56.827591 80.827200 -48.750825
8.510811 15.500491 22.736373 -178.961409 -0.764265 -179.455362 0.000000 0.000000 0.000000 -23.450497 -17.220457 -2.598421 1.742168 8.306963 23.650423 1.015286 7.952708 -23.486964 4.645406 -12.972890 -39.267282 0.000000 0.000000 0.000000 25.353195 13.117394 2.076202 -0.972341 -6.277604 17.592078 0.448374 -20.104943 -24.713080 -0.020016 0.911199 -2.504409 0.887072 0.827531 9.652301 -0.132981 1.163228 -4.519068 -0.850838 0.468713 -10.256077 -6.141594 -2.847793 -5.245033 6.517993 -3.707220 3.303797 3.089641 -1.782677 2.264336 0.000000 0.000000 0.000000 7.374397 15.705483 -42.868719 21.636558 -32.563623 6.389274 4.122224 4.328812 36.399151 0.000000 0.000000 0.000000 -7.125000 0.000000 0.000000 -15.707501 -5.298944 -17.743881 0.000000 0.000000 0.000000 -7.306721 14.094331 52.631863 -20.589576 -31.346074 -5.835001 -26.157922 42.757961 51.246164 0.000000 0.000000 0.000000 7.125000 0.000000 0.000000 52.321555 80.904900 -44.735144
8.511660 15.501202 22.736117 -178.950606 -0.769351 -179.449180 0.000000 0.000000 0.000000 -23.428696 -17.225009 -2.622010 1.746116 8.315929 23.677912 1.019329 7.901606 -23.482329 4.615765 -12.937496 -39.135103 0.000000 0.000000 0.000000 25.360817 13.086354 2.042434 -0.975762 -6.288311 17.623390 0.444296 -20.066098 -24.686785 -0.022622 0.970304 -2.667083 0.888440 0.821292 9.672405 -0.119965 1.158356 -4.478411 -0.836850 0.468129 -10.223334 -6.243737 -2.849569 -5.296013 6.634927 -3.705346 3.272215 3.149286 -1.780111 2.269960 0.000000 0.000000 0.000000 7.649793 15.716863 -43.201716 21.825405 -32.778988 6.491183 4.477205 3.788286 36.515092 0.000000 0.000000 0.000000 -7.125000 0.000000 0.000000 -15.527953 -5.449334 -17.562742 0.000000 0.000000 0.000000 -7.520077 14.098186 52.843515 -20.667640 -31.438252 -5.875659 -26.861096 43.341858 50.484183 0.000000 0.000000 0.000000 7.125000 0.000000 0.000000 47.548788 80.872350 -40.427279
